<svg width="198" height="69" viewBox="0 0 198 69" fill="none" xmlns="http://www.w3.org/2000/svg">
<g filter="url(#filter0_d_948_3809)">
<rect x="12" y="11" width="174" height="45" rx="5" fill="#FFDA6A"/>
<path d="M51.796 27.94C53.4493 27.94 54.7347 28.3987 55.652 29.316C56.58 30.2227 57.044 31.524 57.044 33.22C57.044 34.916 56.58 36.2227 55.652 37.14C54.7347 38.0467 53.4493 38.5 51.796 38.5H48.068V27.94H51.796ZM51.796 37.044C52.916 37.044 53.7693 36.7133 54.356 36.052C54.9533 35.38 55.252 34.436 55.252 33.22C55.252 32.004 54.9533 31.0653 54.356 30.404C53.7693 29.732 52.916 29.396 51.796 29.396H49.78V37.044H51.796ZM62.8156 30.34C63.5943 30.34 64.2823 30.5053 64.8796 30.836C65.477 31.1667 65.941 31.6467 66.2716 32.276C66.613 32.8947 66.7836 33.636 66.7836 34.5C66.7836 35.364 66.613 36.1107 66.2716 36.74C65.941 37.3587 65.477 37.8333 64.8796 38.164C64.2823 38.4947 63.5943 38.66 62.8156 38.66C62.037 38.66 61.349 38.4947 60.7516 38.164C60.1543 37.8333 59.685 37.3587 59.3436 36.74C59.0023 36.1107 58.8316 35.364 58.8316 34.5C58.8316 33.636 59.0023 32.8947 59.3436 32.276C59.685 31.6467 60.1543 31.1667 60.7516 30.836C61.349 30.5053 62.037 30.34 62.8156 30.34ZM62.8156 31.684C62.3356 31.684 61.925 31.796 61.5836 32.02C61.253 32.2333 60.997 32.548 60.8156 32.964C60.6343 33.38 60.5436 33.892 60.5436 34.5C60.5436 35.0973 60.6343 35.6093 60.8156 36.036C60.997 36.452 61.253 36.772 61.5836 36.996C61.925 37.2093 62.3356 37.316 62.8156 37.316C63.2956 37.316 63.701 37.2093 64.0316 36.996C64.3623 36.772 64.6183 36.452 64.7996 36.036C64.981 35.6093 65.0716 35.0973 65.0716 34.5C65.0716 33.892 64.981 33.38 64.7996 32.964C64.6183 32.548 64.3623 32.2333 64.0316 32.02C63.701 31.796 63.2956 31.684 62.8156 31.684ZM78.879 30.5H80.735L78.047 38.5H76.175L74.159 32.564L72.255 38.5H70.383L67.711 30.5H69.551L71.375 36.82L73.359 30.5H75.071L77.055 36.82L78.879 30.5ZM82.3905 38.5V30.5H83.9105L84.0225 32.58L83.7985 32.356C83.9478 31.8973 84.1612 31.5187 84.4385 31.22C84.7265 30.9107 85.0625 30.6867 85.4465 30.548C85.8412 30.4093 86.2572 30.34 86.6945 30.34C87.2598 30.34 87.7665 30.452 88.2145 30.676C88.6732 30.8893 89.0358 31.2147 89.3025 31.652C89.5692 32.0893 89.7025 32.644 89.7025 33.316V38.5H87.9905V33.844C87.9905 33.0547 87.8252 32.5107 87.4945 32.212C87.1745 31.9027 86.7692 31.748 86.2785 31.748C85.9265 31.748 85.5852 31.8333 85.2545 32.004C84.9238 32.164 84.6465 32.4253 84.4225 32.788C84.2092 33.1507 84.1025 33.636 84.1025 34.244V38.5H82.3905ZM93.9608 26.9V36.26C93.9608 36.6547 94.0301 36.9267 94.1688 37.076C94.3074 37.2253 94.5368 37.3 94.8568 37.3C95.0488 37.3 95.2088 37.2893 95.3368 37.268C95.4754 37.236 95.6461 37.1827 95.8488 37.108L95.6568 38.388C95.4754 38.4733 95.2674 38.5373 95.0328 38.58C94.7981 38.6333 94.5634 38.66 94.3288 38.66C93.6141 38.66 93.0861 38.4787 92.7448 38.116C92.4141 37.7427 92.2488 37.172 92.2488 36.404V26.9H93.9608ZM100.753 30.34C101.532 30.34 102.22 30.5053 102.817 30.836C103.414 31.1667 103.878 31.6467 104.209 32.276C104.55 32.8947 104.721 33.636 104.721 34.5C104.721 35.364 104.55 36.1107 104.209 36.74C103.878 37.3587 103.414 37.8333 102.817 38.164C102.22 38.4947 101.532 38.66 100.753 38.66C99.9745 38.66 99.2865 38.4947 98.6891 38.164C98.0918 37.8333 97.6225 37.3587 97.2811 36.74C96.9398 36.1107 96.7691 35.364 96.7691 34.5C96.7691 33.636 96.9398 32.8947 97.2811 32.276C97.6225 31.6467 98.0918 31.1667 98.6891 30.836C99.2865 30.5053 99.9745 30.34 100.753 30.34ZM100.753 31.684C100.273 31.684 99.8625 31.796 99.5211 32.02C99.1905 32.2333 98.9345 32.548 98.7531 32.964C98.5718 33.38 98.4811 33.892 98.4811 34.5C98.4811 35.0973 98.5718 35.6093 98.7531 36.036C98.9345 36.452 99.1905 36.772 99.5211 36.996C99.8625 37.2093 100.273 37.316 100.753 37.316C101.233 37.316 101.638 37.2093 101.969 36.996C102.3 36.772 102.556 36.452 102.737 36.036C102.918 35.6093 103.009 35.0973 103.009 34.5C103.009 33.892 102.918 33.38 102.737 32.964C102.556 32.548 102.3 32.2333 101.969 32.02C101.638 31.796 101.233 31.684 100.753 31.684ZM111.483 33.364C111.483 32.8307 111.334 32.42 111.035 32.132C110.747 31.8333 110.347 31.684 109.835 31.684C109.355 31.684 108.945 31.796 108.603 32.02C108.262 32.244 108.011 32.6067 107.851 33.108L106.411 32.5C106.614 31.8493 107.009 31.3267 107.595 30.932C108.193 30.5373 108.961 30.34 109.899 30.34C110.539 30.34 111.105 30.4467 111.595 30.66C112.086 30.8627 112.47 31.172 112.747 31.588C113.035 32.004 113.179 32.5373 113.179 33.188V36.756C113.179 37.1507 113.377 37.348 113.771 37.348C113.963 37.348 114.15 37.3213 114.331 37.268L114.235 38.452C113.99 38.5693 113.681 38.628 113.307 38.628C112.966 38.628 112.657 38.5693 112.379 38.452C112.113 38.324 111.899 38.1373 111.739 37.892C111.59 37.636 111.515 37.3213 111.515 36.948V36.836L111.867 36.82C111.771 37.236 111.574 37.5827 111.275 37.86C110.977 38.1267 110.63 38.3293 110.235 38.468C109.841 38.596 109.441 38.66 109.035 38.66C108.534 38.66 108.081 38.58 107.675 38.42C107.281 38.26 106.966 38.02 106.731 37.7C106.507 37.3693 106.395 36.964 106.395 36.484C106.395 35.8867 106.587 35.396 106.971 35.012C107.366 34.628 107.921 34.3667 108.635 34.228L111.739 33.62L111.723 34.82L109.467 35.284C109.019 35.3693 108.683 35.492 108.459 35.652C108.235 35.812 108.123 36.0467 108.123 36.356C108.123 36.6547 108.235 36.8947 108.459 37.076C108.694 37.2467 109.003 37.332 109.387 37.332C109.654 37.332 109.91 37.3 110.155 37.236C110.411 37.172 110.641 37.0707 110.843 36.932C111.046 36.7827 111.201 36.596 111.307 36.372C111.425 36.1373 111.483 35.86 111.483 35.54V33.364ZM119.041 38.66C118.379 38.66 117.777 38.4947 117.233 38.164C116.699 37.8333 116.278 37.3587 115.969 36.74C115.659 36.1213 115.505 35.38 115.505 34.516C115.505 33.62 115.67 32.8627 116.001 32.244C116.331 31.6253 116.774 31.156 117.329 30.836C117.883 30.5053 118.491 30.34 119.153 30.34C119.835 30.34 120.411 30.5267 120.881 30.9C121.35 31.2733 121.665 31.7587 121.825 32.356L121.633 32.532V26.9H123.345V38.5H121.825L121.697 36.324L121.921 36.34C121.846 36.82 121.67 37.236 121.393 37.588C121.115 37.9293 120.769 38.196 120.353 38.388C119.947 38.5693 119.51 38.66 119.041 38.66ZM119.409 37.284C119.867 37.284 120.262 37.1667 120.593 36.932C120.923 36.6973 121.179 36.3667 121.361 35.94C121.542 35.5133 121.633 35.0013 121.633 34.404C121.633 33.8493 121.542 33.3747 121.361 32.98C121.179 32.5747 120.923 32.2653 120.593 32.052C120.273 31.8387 119.899 31.732 119.473 31.732C118.758 31.732 118.203 31.9773 117.809 32.468C117.414 32.9587 117.217 33.636 117.217 34.5C117.217 35.364 117.409 36.0467 117.793 36.548C118.177 37.0387 118.715 37.284 119.409 37.284Z" fill="#131E27"/>
<path d="M143.365 36.6747C143.381 36.6951 143.402 36.7116 143.425 36.7229C143.448 36.7342 143.474 36.7401 143.5 36.7401C143.526 36.7401 143.552 36.7342 143.575 36.7229C143.598 36.7116 143.619 36.6951 143.635 36.6747L146.03 33.6555C146.118 33.5447 146.039 33.3807 145.896 33.3807H144.311V26.1705C144.311 26.0767 144.234 26 144.14 26H142.856C142.762 26 142.685 26.0767 142.685 26.1705V33.3786H141.104C140.961 33.3786 140.882 33.5426 140.97 33.6534L143.365 36.6747ZM151.329 35.929H150.045C149.951 35.929 149.874 36.0057 149.874 36.0994V39.3807H137.126V36.0994C137.126 36.0057 137.049 35.929 136.955 35.929H135.671C135.577 35.929 135.5 36.0057 135.5 36.0994V40.3182C135.5 40.6953 135.806 41 136.184 41H150.816C151.194 41 151.5 40.6953 151.5 40.3182V36.0994C151.5 36.0057 151.423 35.929 151.329 35.929Z" fill="#131E27"/>
</g>
<defs>
<filter id="filter0_d_948_3809" x="0" y="0" width="198" height="69" filterUnits="userSpaceOnUse" color-interpolation-filters="sRGB">
<feFlood flood-opacity="0" result="BackgroundImageFix"/>
<feColorMatrix in="SourceAlpha" type="matrix" values="0 0 0 0 0 0 0 0 0 0 0 0 0 0 0 0 0 0 127 0" result="hardAlpha"/>
<feOffset dy="1"/>
<feGaussianBlur stdDeviation="6"/>
<feComposite in2="hardAlpha" operator="out"/>
<feColorMatrix type="matrix" values="0 0 0 0 0 0 0 0 0 0 0 0 0 0 0 0 0 0 0.1 0"/>
<feBlend mode="normal" in2="BackgroundImageFix" result="effect1_dropShadow_948_3809"/>
<feBlend mode="normal" in="SourceGraphic" in2="effect1_dropShadow_948_3809" result="shape"/>
</filter>
</defs>
</svg>
