<svg width="17" height="15" viewBox="0 0 17 15" fill="none" xmlns="http://www.w3.org/2000/svg">
<path d="M8.36524 10.6747C8.38125 10.6951 8.4017 10.7116 8.42505 10.7229C8.4484 10.7342 8.47403 10.7401 8.5 10.7401C8.52597 10.7401 8.5516 10.7342 8.57495 10.7229C8.5983 10.7116 8.61875 10.6951 8.63476 10.6747L11.0305 7.65554C11.1182 7.54474 11.039 7.38068 10.8957 7.38068H9.3107V0.170455C9.3107 0.0767045 9.23369 0 9.13957 0H7.85615C7.76203 0 7.68503 0.0767045 7.68503 0.170455V7.37855H6.10428C5.96096 7.37855 5.88182 7.54261 5.96952 7.65341L8.36524 10.6747ZM16.3289 9.92898H15.0455C14.9513 9.92898 14.8743 10.0057 14.8743 10.0994V13.3807H2.12567V10.0994C2.12567 10.0057 2.04866 9.92898 1.95455 9.92898H0.671123C0.577005 9.92898 0.5 10.0057 0.5 10.0994V14.3182C0.5 14.6953 0.805882 15 1.18449 15H15.8155C16.1941 15 16.5 14.6953 16.5 14.3182V10.0994C16.5 10.0057 16.423 9.92898 16.3289 9.92898Z" fill="#131E27"/>
</svg>
