<svg width="24" height="24" viewBox="0 0 24 24" fill="none" xmlns="http://www.w3.org/2000/svg">
<g clip-path="url(#clip0_958_4457)">
<path d="M14.2301 5.27783H3.52612V7.01283H14.2301V5.27783Z" fill="#030104"/>
<path d="M19.4726 18.3229C20.3023 16.8571 20.0617 14.9894 18.8548 13.7838C18.1407 13.0697 17.1913 12.6757 16.1781 12.6757C15.165 12.6757 14.2142 13.0697 13.5002 13.7838C12.7862 14.4978 12.3921 15.4472 12.3921 16.4617C12.3921 17.4723 12.7862 18.423 13.5002 19.1396C14.2142 19.8511 15.1637 20.2452 16.1755 20.2452C16.8349 20.2452 17.4735 20.0774 18.0406 19.7574L22.2832 24L23.7151 22.5667L19.4726 18.3229ZM17.7714 18.0536C16.9234 18.9016 15.4355 18.9016 14.5875 18.0536C13.7096 17.1744 13.7096 15.7477 14.5875 14.8685C15.0115 14.4445 15.5786 14.2104 16.1807 14.2104C16.7829 14.2104 17.3474 14.4445 17.7727 14.8685C18.198 15.2925 18.4321 15.8595 18.4321 16.4617C18.4321 17.0639 18.1967 17.6283 17.7714 18.0536Z" fill="#030104"/>
<path d="M17.3397 21.1998H2.4153C2.17859 21.1998 1.9874 21.0073 1.9874 20.7732V2.13039C1.9874 1.89368 2.17859 1.70249 2.4153 1.70249H17.3397C17.5764 1.70249 17.7663 1.89368 17.7663 2.13039V11.6404C18.3841 11.7756 18.9602 12.0397 19.4701 12.4168V2.13039C19.4701 0.955942 18.5154 0 17.3397 0H2.4153C1.24085 0 0.284912 0.955942 0.284912 2.13039V20.7732C0.284912 21.9463 1.24085 22.9023 2.4153 22.9023H17.3397C18.2306 22.9023 18.652 22.6916 18.9694 21.9138L18.1968 21.1413C17.912 21.2609 17.462 21.1998 17.3397 21.1998Z" fill="#030104"/>
<path d="M14.2301 10.1681H3.52612V11.9031H14.2301V10.1681Z" fill="#030104"/>
</g>
<defs>
<clipPath id="clip0_958_4457">
<rect width="24" height="24" fill="white"/>
</clipPath>
</defs>
</svg>
