<svg width="25" height="24" viewBox="0 0 25 24" fill="none" xmlns="http://www.w3.org/2000/svg">
<path d="M12.131 4.875H10.9902C10.9304 4.87502 10.8715 4.8889 10.8182 4.91553C10.765 4.94215 10.7188 4.98077 10.6834 5.02826L9.96074 6H9.05678C8.96707 5.74979 8.79055 5.53892 8.55842 5.40464C8.3263 5.27036 8.0535 5.22132 7.78826 5.2662C7.52301 5.31108 7.2824 5.44698 7.10893 5.64988C6.93547 5.85278 6.84033 6.10962 6.84033 6.375C6.84033 6.64038 6.93547 6.89722 7.10893 7.10012C7.2824 7.30302 7.52301 7.43892 7.78826 7.4838C8.0535 7.52867 8.3263 7.47964 8.55842 7.34536C8.79055 7.21108 8.96707 7.00021 9.05678 6.75H10.1535C10.2132 6.74998 10.2721 6.7361 10.3254 6.70947C10.3787 6.68285 10.4249 6.64423 10.4602 6.59674L11.1829 5.625H12.131V4.875Z" fill="#131E27"/>
<path d="M12.1311 8.25H10.61C10.5444 8.24997 10.4798 8.26672 10.4227 8.29862C10.3655 8.33051 10.3177 8.37647 10.284 8.43201L9.4818 9.75H7.53578C7.44607 9.4998 7.26956 9.28892 7.03743 9.15464C6.8053 9.02036 6.53251 8.97133 6.26726 9.0162C6.00202 9.06108 5.7614 9.19698 5.58794 9.39988C5.41447 9.60278 5.31934 9.85962 5.31934 10.125C5.31934 10.3904 5.41447 10.6472 5.58794 10.8501C5.7614 11.053 6.00202 11.1889 6.26726 11.2338C6.53251 11.2787 6.8053 11.2296 7.03743 11.0954C7.26956 10.9611 7.44607 10.7502 7.53578 10.5H9.69719C9.76286 10.5 9.82741 10.4833 9.88456 10.4514C9.9417 10.4195 9.98949 10.3735 10.0233 10.318L10.8254 9H12.1311V8.25Z" fill="#131E27"/>
<path d="M6.84522 17.625C6.84458 17.8902 6.93915 18.147 7.11218 18.3499C7.28521 18.5529 7.52551 18.6889 7.7905 18.7338C8.0555 18.7787 8.32806 18.7297 8.55989 18.5954C8.79172 18.461 8.96784 18.2501 9.05704 18H9.961L10.6837 18.9717C10.719 19.0192 10.7652 19.0579 10.8185 19.0845C10.8718 19.1111 10.9307 19.125 10.9904 19.125H12.1313V18.375H11.1832L10.4605 17.4033C10.4251 17.3558 10.379 17.3172 10.3257 17.2905C10.2724 17.2639 10.2135 17.25 10.1537 17.25H9.05704C8.96784 16.9999 8.79172 16.789 8.55989 16.6547C8.32806 16.5203 8.0555 16.4713 7.7905 16.5162C7.52551 16.5612 7.28521 16.6972 7.11218 16.9001C6.93915 17.1031 6.84458 17.3599 6.84522 17.625Z" fill="#131E27"/>
<path d="M12.1311 14.625H10.7927L9.99429 13.6406C9.95858 13.5968 9.91336 13.5614 9.86194 13.537C9.81052 13.5127 9.75423 13.5 9.69719 13.5H7.53578C7.44607 13.2498 7.26956 13.0389 7.03743 12.9046C6.8053 12.7704 6.53251 12.7213 6.26726 12.7662C6.00202 12.8111 5.7614 12.947 5.58794 13.1499C5.41447 13.3528 5.31934 13.6096 5.31934 13.875C5.31934 14.1404 5.41447 14.3972 5.58794 14.6001C5.7614 14.803 6.00202 14.9389 6.26726 14.9838C6.53251 15.0287 6.8053 14.9796 7.03743 14.8454C7.26956 14.7111 7.44607 14.5002 7.53578 14.25H9.51448L10.3129 15.2344C10.3486 15.2782 10.3939 15.3136 10.4453 15.338C10.4967 15.3623 10.553 15.375 10.61 15.375H12.1311V14.625Z" fill="#131E27"/>
<path d="M11.0281 11.625H10.2676V12.375H11.0281V11.625Z" fill="#131E27"/>
<path d="M9.12677 15H8.36621V15.75H9.12677V15Z" fill="#131E27"/>
<path d="M9.50714 7.875H8.74658V8.625H9.50714V7.875Z" fill="#131E27"/>
<path d="M12.1691 23.625C14.0828 23.6239 15.9676 23.1637 17.6607 22.2841C19.3538 21.4044 20.8044 20.1317 21.8874 18.5758C22.9704 17.0199 23.6532 15.2276 23.8769 13.3533C24.1007 11.4791 23.8586 9.5794 23.1716 7.81804L22.4623 8.08794C22.9038 9.21848 23.1493 10.4142 23.1887 11.625H22.0564V12.375H23.1876C23.1323 14.029 22.6923 15.6483 21.9014 17.1079L20.9219 16.5502L20.5416 17.1998L21.5192 17.7564C20.6284 19.1576 19.4275 20.3418 18.0066 21.2203L17.4422 20.2562L16.7834 20.6312L17.3489 21.5972C15.8687 22.377 14.2266 22.8109 12.5494 22.8655V21.75H11.7888V22.8655C10.1116 22.8109 8.46949 22.377 6.98935 21.5972L7.55485 20.6312L6.89604 20.2562L6.33163 21.2203C4.91068 20.3418 3.70979 19.1576 2.81897 17.7564L3.7966 17.1998L3.41631 16.5502L2.43676 17.1079C1.64594 15.6483 1.20588 14.029 1.15057 12.375H2.28178V11.625H1.15057C1.20588 9.97101 1.64594 8.35169 2.43676 6.89208L3.41631 7.44981L3.7966 6.80016L2.81897 6.24354C3.70979 4.84233 4.91068 3.65813 6.33163 2.77969L6.89604 3.74376L7.55485 3.36876L6.98935 2.40279C8.46949 1.62297 10.1116 1.18904 11.7888 1.13448V2.24998H12.5494V1.13529C14.2268 1.18979 15.8693 1.62196 17.3513 2.39874L16.7834 3.36876L17.4422 3.74376L18.0086 2.77623C18.8534 3.29705 19.6229 3.92822 20.296 4.65256L19.1806 5.48399L22.4002 6.742L21.9875 3.39162L20.9045 4.19896C19.5867 2.76405 17.9263 1.67642 16.0741 1.03484C14.2219 0.393251 12.2365 0.218019 10.2982 0.525049C8.35986 0.832079 6.53 1.61165 4.97473 2.79298C3.41946 3.97432 2.18803 5.52 1.39224 7.28971C0.596447 9.05942 0.261494 10.9971 0.41779 12.9269C0.574086 14.8566 1.21668 16.7173 2.28724 18.34C3.35779 19.9627 4.8224 21.2961 6.5481 22.219C8.27381 23.142 10.2059 23.6252 12.1691 23.625Z" fill="#131E27"/>
<path d="M20.117 9.96418C20.0934 9.43795 19.9062 8.93161 19.5809 8.5138C19.2556 8.096 18.8079 7.78693 18.2985 7.62852C18.1528 7.7145 18.0315 7.83543 17.9459 7.98006C17.8603 8.12469 17.8132 8.28832 17.8089 8.45572H17.0061C17.0132 8.08994 17.1322 7.7348 17.3475 7.43688C17.5629 7.13895 17.8645 6.91216 18.2128 6.78622C17.8793 5.68782 16.7035 4.8749 15.3001 4.8749C14.8473 4.86791 14.3982 4.95634 13.9828 5.13428C13.5675 5.31223 13.1954 5.57558 12.8916 5.90672V12.3051C13.2094 12.2859 13.5142 12.1735 13.7668 11.9824C14.0194 11.7912 14.2084 11.53 14.3094 11.2322L14.3341 11.1589L15.0954 11.4094L15.0707 11.4825C14.9166 11.9379 14.6255 12.3362 14.2363 12.6246C13.8471 12.9129 13.3781 13.0776 12.8916 13.0968V18.0931C13.1954 18.4242 13.5675 18.6876 13.9828 18.8655C14.3982 19.0434 14.8473 19.1319 15.3001 19.1249C16.858 19.1249 18.1395 18.1245 18.2947 16.8424C17.9317 16.7247 17.6147 16.4988 17.3876 16.1958C17.1604 15.8929 17.0342 15.5278 17.0265 15.1511H17.8293C17.8315 15.2934 17.8653 15.4335 17.9282 15.5616C17.9912 15.6897 18.0817 15.8026 18.1936 15.8926C18.7261 15.7483 19.1987 15.4418 19.5441 15.017C19.8895 14.5921 20.09 14.0705 20.117 13.5267C20.1116 13.1859 20.0316 12.8503 19.8824 12.5429C19.7333 12.2354 19.5185 11.9634 19.2528 11.7454C19.5185 11.5275 19.7333 11.2554 19.8825 10.948C20.0316 10.6406 20.1116 10.3049 20.117 9.96418Z" fill="#131E27"/>
</svg>
