<svg width="24" height="24" viewBox="0 0 24 24" fill="none" xmlns="http://www.w3.org/2000/svg">
<path d="M1.3904 4.68222C0.986427 4.68222 0.639893 4.33769 0.639893 3.91276C0.639893 3.5089 0.986427 3.16245 1.3904 3.16245H2.43C2.44915 3.16245 2.48744 3.16245 2.5085 3.16245C3.20156 3.18159 3.81805 3.31558 4.33498 3.64288C4.91126 4.00847 5.33438 4.56546 5.56604 5.39425C5.56604 5.41339 5.56604 5.43253 5.58518 5.45167L5.77664 6.22304H7.9956C8.13537 6.78769 8.44361 7.31405 8.91076 7.72175H6.19975L7.91137 14.1664H20.0496L21.6445 7.72175H19.01C19.4772 7.31405 19.7835 6.78577 19.9252 6.22304H22.4256H22.6094C23.0325 6.22304 23.3599 6.56948 23.3599 6.97335C23.3599 7.05183 23.3388 7.12648 23.3216 7.20495L21.3592 15.1081C21.2807 15.4546 20.9744 15.6842 20.6297 15.6842H8.31534C8.58529 16.6834 8.85333 17.2232 9.219 17.4739C9.66127 17.7629 10.4309 17.7801 11.7213 17.7629H11.7405H20.4364C20.8595 17.7629 21.1869 18.1094 21.1869 18.5132C21.1869 18.9362 20.8403 19.2635 20.4364 19.2635H11.7405C10.1437 19.2827 9.16348 19.2444 8.37277 18.7257C7.56483 18.1878 7.14171 17.2634 6.7186 15.5905L4.14161 5.83831C4.14161 5.81917 4.14161 5.81917 4.12246 5.80003C4.00759 5.37702 3.81614 5.088 3.54618 4.93487C3.27623 4.76069 2.91247 4.68605 2.48935 4.68605C2.47021 4.68605 2.45106 4.68605 2.43191 4.68605L1.3904 4.68222ZM13.3946 8.763L10.2816 6.20773C9.90059 5.90147 9.83932 5.34065 10.1456 4.95976C10.452 4.57886 11.0129 4.51761 11.3939 4.82386L13.073 6.22112L13.0711 1.20628C13.0692 0.716279 13.4674 0.320068 13.9556 0.320068C14.4457 0.320068 14.842 0.716279 14.842 1.20628L14.844 6.22304L16.5249 4.82577C16.9059 4.51952 17.465 4.58077 17.7732 4.96167C18.0796 5.34257 18.0183 5.90147 17.6373 6.20964L14.5242 8.763L14.5147 8.77066C14.1873 9.02523 13.7603 9.04437 13.4061 8.77066L13.3946 8.763ZM16.2416 11.4369C16.2416 11.1996 16.4771 11.0082 16.7643 11.0082C17.0534 11.0082 17.2869 11.1996 17.2869 11.4369V12.3385C17.2869 12.5758 17.0514 12.7672 16.7643 12.7672C16.4752 12.7672 16.2416 12.5758 16.2416 12.3385V11.4369ZM13.1075 11.4369C13.1075 11.1996 13.343 11.0082 13.6301 11.0082C13.9192 11.0082 14.1528 11.1996 14.1528 11.4369V12.3385C14.1528 12.5758 13.9173 12.7672 13.6301 12.7672C13.341 12.7672 13.1075 12.5758 13.1075 12.3385V11.4369ZM9.97525 11.4369C9.97525 11.1996 10.2107 11.0082 10.4979 11.0082C10.787 11.0082 11.0206 11.1996 11.0206 11.4369V12.3385C11.0206 12.5758 10.7851 12.7672 10.4979 12.7672C10.2088 12.7672 9.97525 12.5758 9.97525 12.3385V11.4369ZM18.1849 20.1459C19.2053 20.1459 20.0324 20.9728 20.0324 21.993C20.0324 23.0132 19.2053 23.8401 18.1849 23.8401C17.1663 23.8401 16.3373 23.0132 16.3373 21.993C16.3373 20.9728 17.1663 20.1459 18.1849 20.1459ZM10.0863 20.1459C11.1048 20.1459 11.9338 20.9728 11.9338 21.993C11.9338 23.0132 11.1068 23.8401 10.0863 23.8401C9.06584 23.8401 8.23875 23.0132 8.23875 21.993C8.23875 20.9728 9.06584 20.1459 10.0863 20.1459Z" fill="#131E27"/>
</svg>
