<svg width="24" height="24" viewBox="0 0 24 24" fill="none" xmlns="http://www.w3.org/2000/svg">
<path d="M1.3904 4.68216C0.986427 4.68216 0.639893 4.33763 0.639893 3.9127C0.639893 3.50884 0.986427 3.16239 1.3904 3.16239H2.43C2.44915 3.16239 2.48744 3.16239 2.5085 3.16239C3.20156 3.18153 3.81805 3.31552 4.33498 3.64282C4.91126 4.00841 5.33438 4.5654 5.56604 5.39419C5.56604 5.41333 5.56604 5.43247 5.58518 5.45161L5.77664 6.22298H7.9956C8.13537 6.78762 8.44361 7.31399 8.91076 7.72169H6.19975L7.91137 14.1663H20.0496L21.6445 7.72169H19.01C19.4772 7.31399 19.7835 6.78571 19.9252 6.22298H22.4256H22.6094C23.0325 6.22298 23.3599 6.56942 23.3599 6.97329C23.3599 7.05177 23.3388 7.12641 23.3216 7.20489L21.3592 15.1081C21.2807 15.4545 20.9744 15.6842 20.6297 15.6842H8.31534C8.58529 16.6833 8.85333 17.2231 9.219 17.4738C9.66127 17.7629 10.4309 17.7801 11.7213 17.7629H11.7405H20.4364C20.8595 17.7629 21.1869 18.1093 21.1869 18.5132C21.1869 18.9362 20.8403 19.2635 20.4364 19.2635H11.7405C10.1437 19.2826 9.16348 19.2443 8.37277 18.7256C7.56483 18.1878 7.14171 17.2633 6.7186 15.5904L4.14161 5.83825C4.14161 5.81911 4.14161 5.81911 4.12246 5.79997C4.00759 5.37696 3.81614 5.08794 3.54618 4.93481C3.27623 4.76063 2.91247 4.68598 2.48935 4.68598C2.47021 4.68598 2.45106 4.68598 2.43191 4.68598L1.3904 4.68216ZM13.3946 8.76294L10.2816 6.20766C9.90059 5.90141 9.83932 5.34059 10.1456 4.9597C10.452 4.5788 11.0129 4.51755 11.3939 4.8238L13.073 6.22106L13.0711 1.20622C13.0692 0.716218 13.4674 0.320007 13.9556 0.320007C14.4457 0.320007 14.842 0.716218 14.842 1.20622L14.844 6.22298L16.5249 4.82571C16.9059 4.51946 17.465 4.58071 17.7732 4.96161C18.0796 5.34251 18.0183 5.90141 17.6373 6.20958L14.5242 8.76294L14.5147 8.77059C14.1873 9.02516 13.7603 9.0443 13.4061 8.77059L13.3946 8.76294ZM16.2416 11.4369C16.2416 11.1995 16.4771 11.0081 16.7643 11.0081C17.0534 11.0081 17.2869 11.1995 17.2869 11.4369V12.3384C17.2869 12.5758 17.0514 12.7672 16.7643 12.7672C16.4752 12.7672 16.2416 12.5758 16.2416 12.3384V11.4369ZM13.1075 11.4369C13.1075 11.1995 13.343 11.0081 13.6301 11.0081C13.9192 11.0081 14.1528 11.1995 14.1528 11.4369V12.3384C14.1528 12.5758 13.9173 12.7672 13.6301 12.7672C13.341 12.7672 13.1075 12.5758 13.1075 12.3384V11.4369ZM9.97525 11.4369C9.97525 11.1995 10.2107 11.0081 10.4979 11.0081C10.787 11.0081 11.0206 11.1995 11.0206 11.4369V12.3384C11.0206 12.5758 10.7851 12.7672 10.4979 12.7672C10.2088 12.7672 9.97525 12.5758 9.97525 12.3384V11.4369ZM18.1849 20.1459C19.2053 20.1459 20.0324 20.9727 20.0324 21.9929C20.0324 23.0131 19.2053 23.84 18.1849 23.84C17.1663 23.84 16.3373 23.0131 16.3373 21.9929C16.3373 20.9727 17.1663 20.1459 18.1849 20.1459ZM10.0863 20.1459C11.1048 20.1459 11.9338 20.9727 11.9338 21.9929C11.9338 23.0131 11.1068 23.84 10.0863 23.84C9.06584 23.84 8.23875 23.0131 8.23875 21.9929C8.23875 20.9727 9.06584 20.1459 10.0863 20.1459Z" fill="white"/>
</svg>
