<svg width="24" height="24" viewBox="0 0 24 24" fill="none" xmlns="http://www.w3.org/2000/svg">
<path d="M20.4987 2.7168H19.7969V19.9574C19.7969 21.1028 18.8646 22.0351 17.7193 22.0351H10.609H4.95483V22.6742C4.95483 23.406 5.54882 24 6.28065 24H13.3884H20.4962C21.228 24 21.822 23.406 21.822 22.6742V4.04261C21.822 3.31078 21.2305 2.7168 20.4987 2.7168Z" fill="white"/>
<path d="M10.6091 21.2832H17.7168C18.4486 21.2832 19.0426 20.6892 19.0426 19.9574V2.71679V1.32581C19.0426 0.593985 18.4486 0 17.7168 0H10.6091H8.24565V0.438597C8.25063 0.483709 8.25316 0.531328 8.25316 0.578947V3.46867V4.21053C8.25316 5.2406 7.41607 6.0777 6.386 6.0777H5.64414H2.75442C2.71683 6.0777 2.67673 6.07519 2.63913 6.07268H2.17798V19.9574C2.17798 20.6892 2.77196 21.2832 3.50379 21.2832H4.95743H10.6091ZM10.8772 16.7769H6.24314C5.89728 16.7769 5.61657 16.4962 5.61657 16.1504C5.61657 15.8045 5.89728 15.5238 6.24314 15.5238H10.8797C11.2256 15.5238 11.5063 15.8045 11.5063 16.1504C11.5063 16.4962 11.2231 16.7769 10.8772 16.7769ZM15.5138 13.579H6.24314C5.89728 13.579 5.61657 13.2982 5.61657 12.9524C5.61657 12.6065 5.89728 12.3258 6.24314 12.3258H15.5138C15.8597 12.3258 16.1404 12.6065 16.1404 12.9524C16.1404 13.2982 15.8597 13.579 15.5138 13.579ZM6.24314 8.92983H15.5138C15.8597 8.92983 16.1404 9.21053 16.1404 9.55639C16.1404 9.90226 15.8597 10.183 15.5138 10.183H6.24314C5.89728 10.183 5.61657 9.90226 5.61657 9.55639C5.61657 9.21053 5.89728 8.92983 6.24314 8.92983Z" fill="white"/>
<path d="M2.75434 5.32578H6.38592C6.38843 5.32578 6.39344 5.32578 6.39595 5.32578C7.00246 5.32077 7.49369 4.82954 7.4987 4.22303C7.4987 4.22052 7.4987 4.21551 7.4987 4.213V0.578917C7.4987 0.243077 7.22301 0.0200195 6.93733 0.0200195C6.79948 0.0200195 6.66164 0.0701448 6.54635 0.185433L2.35835 4.3734C2.00748 4.72428 2.2556 5.32578 2.75434 5.32578Z" fill="white"/>
</svg>
