<svg width="24" height="24" viewBox="0 0 24 24" fill="none" xmlns="http://www.w3.org/2000/svg">
<path d="M20.4985 2.7168H19.7967V19.9574C19.7967 21.1028 18.8644 22.0351 17.719 22.0351H10.6087H4.95459V22.6742C4.95459 23.406 5.54858 24 6.2804 24H13.3882H20.4959C21.2278 24 21.8217 23.406 21.8217 22.6742V4.04261C21.8218 3.31078 21.2303 2.7168 20.4985 2.7168Z" fill="#131E27"/>
<path d="M10.6088 21.2832H17.7166C18.4484 21.2832 19.0424 20.6892 19.0424 19.9574V2.71679V1.32581C19.0424 0.593985 18.4484 0 17.7166 0H10.6088H8.2454V0.438597C8.25039 0.483709 8.25292 0.531328 8.25292 0.578947V3.46867V4.21053C8.25292 5.2406 7.41583 6.0777 6.38575 6.0777H5.6439H2.75418C2.71658 6.0777 2.67648 6.07519 2.63889 6.07268H2.17773V19.9574C2.17773 20.6892 2.77172 21.2832 3.50355 21.2832H4.95718H10.6088ZM10.877 16.7769H6.2429C5.89703 16.7769 5.61633 16.4962 5.61633 16.1504C5.61633 15.8045 5.89703 15.5238 6.2429 15.5238H10.8795C11.2253 15.5238 11.5061 15.8045 11.5061 16.1504C11.5061 16.4962 11.2228 16.7769 10.877 16.7769ZM15.5136 13.579H6.2429C5.89703 13.579 5.61633 13.2982 5.61633 12.9524C5.61633 12.6065 5.89703 12.3258 6.2429 12.3258H15.5136C15.8594 12.3258 16.1401 12.6065 16.1401 12.9524C16.1401 13.2982 15.8594 13.579 15.5136 13.579ZM6.2429 8.92983H15.5136C15.8594 8.92983 16.1401 9.21053 16.1401 9.55639C16.1401 9.90226 15.8594 10.183 15.5136 10.183H6.2429C5.89703 10.183 5.61633 9.90226 5.61633 9.55639C5.61633 9.21053 5.89703 8.92983 6.2429 8.92983Z" fill="#131E27"/>
<path d="M2.7541 5.32578H6.38568C6.38818 5.32578 6.3932 5.32578 6.3957 5.32578C7.00222 5.32077 7.49345 4.82954 7.49846 4.22303C7.49846 4.22052 7.49846 4.21551 7.49846 4.213V0.578917C7.49846 0.243077 7.22277 0.0200195 6.93708 0.0200195C6.79924 0.0200195 6.66139 0.0701448 6.5461 0.185433L2.35811 4.3734C2.00723 4.72428 2.25535 5.32578 2.7541 5.32578Z" fill="#131E27"/>
</svg>
