<svg width="15" height="18" viewBox="0 0 15 18" fill="none" xmlns="http://www.w3.org/2000/svg">
<path d="M14.5253 14.5765L13.5 11.5H12.375L12.9998 14.5H2.00028L2.62503 11.5H1.50003L0.474026 14.5765C0.213776 15.3595 0.675026 16 1.50003 16H13.5C14.325 16 14.7863 15.3595 14.5253 14.5765ZM11.25 4.75C11.25 3.75544 10.8549 2.80161 10.1517 2.09835C9.44842 1.39509 8.49459 1 7.50003 1C6.50546 1 5.55164 1.39509 4.84838 2.09835C4.14511 2.80161 3.75003 3.75544 3.75003 4.75C3.75003 8.33125 7.50003 12.25 7.50003 12.25C7.50003 12.25 11.25 8.33125 11.25 4.75ZM5.47503 4.795C5.47503 4.52911 5.52741 4.26582 5.62918 4.02018C5.73096 3.77454 5.88013 3.55135 6.06818 3.36337C6.25623 3.1754 6.47947 3.02631 6.72515 2.92462C6.97083 2.82294 7.23414 2.77065 7.50003 2.77075C8.03699 2.77075 8.55196 2.98406 8.93165 3.36375C9.31134 3.74344 9.52465 4.25841 9.52465 4.79538C9.52465 5.33234 9.31134 5.84731 8.93165 6.227C8.55196 6.60669 8.03699 6.82 7.50003 6.82C6.96296 6.82 6.4479 6.60665 6.06813 6.22689C5.68837 5.84713 5.47503 5.33206 5.47503 4.795Z" fill="black"/>
</svg>
