<svg width="24" height="24" viewBox="0 0 24 24" fill="none" xmlns="http://www.w3.org/2000/svg">
<g clip-path="url(#clip0_2273_3655)">
<path d="M2.49067 1.28003C1.73761 1.28003 1.12 1.88627 1.12 2.65003V7.78753C1.12 8.24431 1.805 8.24431 1.805 7.78753V2.65003C1.805 2.27531 2.10525 1.96503 2.49067 1.96503H7.62817C8.08496 1.96503 8.08496 1.28003 7.62817 1.28003H2.49067ZM16.5318 1.28003C16.075 1.28003 16.075 1.96503 16.5318 1.96503H21.6693C22.0548 1.96503 22.355 2.27531 22.355 2.65003V7.78753C22.355 8.24431 23.04 8.24431 23.04 7.78753V2.65003C23.04 1.88627 22.4224 1.28003 21.6693 1.28003H16.5318ZM12.08 1.96503C11.8908 1.96503 11.7375 2.11837 11.7375 2.30753C11.7375 2.49668 11.8908 2.65003 12.08 2.65003C12.2692 2.65003 12.4225 2.49668 12.4225 2.30753C12.4225 2.11837 12.2692 1.96503 12.08 1.96503ZM3.175 2.99253C2.98584 2.99253 2.8325 3.14587 2.8325 3.33503C2.8325 3.52418 2.98584 3.67753 3.175 3.67753C3.36416 3.67753 3.5175 3.52418 3.5175 3.33503C3.5175 3.14587 3.36416 2.99253 3.175 2.99253ZM20.985 2.99253C20.7958 2.99253 20.6425 3.14587 20.6425 3.33503C20.6425 3.52418 20.7958 3.67753 20.985 3.67753C21.1742 3.67753 21.3275 3.52418 21.3275 3.33503C21.3275 3.14587 21.1742 2.99253 20.985 2.99253ZM12.08 3.33503C11.8908 3.33503 11.7375 3.48838 11.7375 3.67753C11.7375 3.86669 11.8908 4.02003 12.08 4.02003C12.2692 4.02003 12.4225 3.86669 12.4225 3.67753C12.4225 3.48838 12.2692 3.33503 12.08 3.33503ZM4.2025 4.02003C4.01334 4.02003 3.86 4.17337 3.86 4.36253C3.86 4.55168 4.01334 4.70503 4.2025 4.70503C4.39166 4.70503 4.545 4.55168 4.545 4.36253C4.545 4.17337 4.39166 4.02003 4.2025 4.02003ZM19.9575 4.02003C19.7683 4.02003 19.615 4.17337 19.615 4.36253C19.615 4.55168 19.7683 4.70503 19.9575 4.70503C20.1467 4.70503 20.3 4.55168 20.3 4.36253C20.3 4.17337 20.1467 4.02003 19.9575 4.02003ZM12.08 4.70503C11.8908 4.70503 11.7375 4.85837 11.7375 5.04753C11.7375 5.23668 11.8908 5.39003 12.08 5.39003C12.2692 5.39003 12.4225 5.23668 12.4225 5.04753C12.4225 4.85837 12.2692 4.70503 12.08 4.70503ZM5.23 5.04753C5.04084 5.04753 4.8875 5.20087 4.8875 5.39003C4.8875 5.57918 5.04084 5.73253 5.23 5.73253C5.41916 5.73253 5.5725 5.57918 5.5725 5.39003C5.5725 5.20087 5.41916 5.04753 5.23 5.04753ZM18.93 5.04753C18.7408 5.04753 18.5875 5.20087 18.5875 5.39003C18.5875 5.57918 18.7408 5.73253 18.93 5.73253C19.1192 5.73253 19.2725 5.57918 19.2725 5.39003C19.2725 5.20087 19.1192 5.04753 18.93 5.04753ZM6.2575 6.07503C6.06834 6.07503 5.915 6.22837 5.915 6.41753C5.915 6.60668 6.06834 6.76003 6.2575 6.76003C6.44666 6.76003 6.6 6.60668 6.6 6.41753C6.6 6.22837 6.44666 6.07503 6.2575 6.07503ZM12.08 6.07503C11.8908 6.07503 11.7375 6.22837 11.7375 6.41753C11.7375 6.60668 11.8908 6.76003 12.08 6.76003C12.2692 6.76003 12.4225 6.60668 12.4225 6.41753C12.4225 6.22837 12.2692 6.07503 12.08 6.07503ZM17.9025 6.07503C17.7133 6.07503 17.56 6.22837 17.56 6.41753C17.56 6.60668 17.7133 6.76003 17.9025 6.76003C18.0917 6.76003 18.245 6.60668 18.245 6.41753C18.245 6.22837 18.0917 6.07503 17.9025 6.07503ZM7.285 7.10253C7.09584 7.10253 6.9425 7.25587 6.9425 7.44503C6.9425 7.63418 7.09584 7.78753 7.285 7.78753C7.47416 7.78753 7.6275 7.63418 7.6275 7.44503C7.6275 7.25587 7.47416 7.10253 7.285 7.10253ZM16.875 7.10253C16.6858 7.10253 16.5325 7.25587 16.5325 7.44503C16.5325 7.63418 16.6858 7.78753 16.875 7.78753C17.0642 7.78753 17.2175 7.63418 17.2175 7.44503C17.2175 7.25587 17.0642 7.10253 16.875 7.10253ZM12.08 7.44503C11.3184 7.44507 10.5925 7.62723 9.95342 7.94272L9.85442 7.95945C6.83548 8.43462 4.16262 9.86704 2.55823 12.0353C2.46762 12.1569 2.46762 12.3232 2.55823 12.4447C3.48115 13.692 4.76064 14.6967 6.25282 15.4142C6.22874 15.7925 6.0472 16.1506 5.72903 16.5233C5.38697 16.924 4.89593 17.3187 4.35101 17.6959C3.44561 18.3228 2.52602 18.8309 1.805 19.377V16.6925C1.805 16.2357 1.12 16.2357 1.12 16.6925V21.83C1.12 22.5938 1.73761 23.2 2.49067 23.2H7.62817C8.08496 23.2 8.08496 22.515 7.62817 22.515H4.9176C5.14402 22.2382 5.43052 21.8945 5.74174 21.5444C6.07953 21.1644 6.43894 20.784 6.74315 20.5102C6.89526 20.3733 7.03369 20.2647 7.13984 20.1965C7.24599 20.1282 7.26278 20.1304 7.28366 20.1182H8.65433C9.14132 20.1182 9.57524 19.774 9.87047 19.3804C10.0892 19.0887 10.2561 18.7429 10.328 18.4044H11.7362C12.3051 18.4044 12.7657 17.9475 12.7657 17.3775C12.7657 17.2407 12.74 17.1152 12.6914 16.9962C13.2307 16.928 13.7447 16.7667 14.2119 16.5353L14.2976 16.5206C17.3204 16.047 19.9957 14.6153 21.6018 12.4447C21.6924 12.3232 21.6924 12.1568 21.6018 12.0353C19.9974 9.86705 17.3245 8.43462 14.3056 7.95945L14.2052 7.94272C13.5665 7.62723 12.8416 7.44498 12.08 7.44503ZM12.08 8.13003C14.3406 8.13003 16.19 9.96609 16.19 12.24C16.19 14.514 14.335 16.35 12.08 16.35C9.82498 16.35 7.96933 14.514 7.96933 12.24C7.96933 9.96609 9.81942 8.13003 12.08 8.13003ZM12.08 8.81503C11.9087 8.81503 11.7375 8.92906 11.7375 9.15753V9.52277C10.4971 9.67803 9.51627 10.6613 9.36141 11.8975H8.9975C8.54072 11.8975 8.54072 12.5825 8.9975 12.5825H9.36141C9.51617 13.8188 10.4965 14.8034 11.7375 14.9586V15.3225C11.7375 15.7793 12.4225 15.7793 12.4225 15.3225V14.9586C13.6637 14.8036 14.6438 13.819 14.7986 12.5825H15.1625C15.6193 12.5825 15.6193 11.8975 15.1625 11.8975H14.7986C14.6437 10.6611 13.6632 9.67776 12.4225 9.52277V9.15753C12.4225 8.92913 12.2513 8.81503 12.08 8.81503ZM11.7375 10.2131V10.5275C11.7375 10.9843 12.4225 10.9843 12.4225 10.5275V10.2131C13.2781 10.358 13.9609 11.0357 14.1062 11.8975H13.7925C13.3357 11.8975 13.3357 12.5825 13.7925 12.5825H14.1062C13.9613 13.4446 13.2797 14.1203 12.4225 14.2649V13.9525C12.4225 13.4958 11.7375 13.4958 11.7375 13.9525V14.2649C10.8803 14.1203 10.2001 13.4446 10.0551 12.5825H10.3675C10.8243 12.5825 10.8243 11.8975 10.3675 11.8975H10.0551C10.2004 11.0358 10.8821 10.3581 11.7375 10.2131ZM12.08 11.8975C11.8908 11.8975 11.7375 12.0509 11.7375 12.24C11.7375 12.4292 11.8908 12.5825 12.08 12.5825C12.2692 12.5825 12.4225 12.4292 12.4225 12.24C12.4225 12.0509 12.2692 11.8975 12.08 11.8975ZM7.17396 13.9539C7.22441 13.95 7.28396 13.9552 7.34989 13.9773C7.60279 14.0603 7.96933 14.3984 7.96933 15.2162V16.6925C7.97002 16.8817 8.12395 17.0344 8.31317 17.0337H11.7362C11.9318 17.0337 12.08 17.1899 12.08 17.3775C12.08 17.5652 11.9318 17.7187 11.7362 17.7187H10.0243C9.83511 17.7194 9.68244 17.874 9.68317 18.0632C9.68317 18.3156 9.54045 18.6789 9.32194 18.9703C9.10343 19.2617 8.84298 19.4332 8.65433 19.4332H7.28366C7.09101 19.4332 6.92666 19.5202 6.77058 19.6205C6.61451 19.7208 6.45458 19.8497 6.2856 20.0018C5.94762 20.306 5.57855 20.6989 5.23134 21.0895C4.63116 21.7647 4.17101 22.3452 4.03727 22.515H2.49067C2.10525 22.515 1.805 22.2047 1.805 21.83V20.2647C2.47671 19.646 3.60728 19.0349 4.74033 18.2579C5.31026 17.867 5.84298 17.4451 6.25014 16.9681C6.6573 16.4912 6.9425 15.9403 6.9425 15.3219V14.2449C6.9425 14.0831 7.0032 14.0225 7.05154 13.992C7.08215 13.9727 7.1235 13.9582 7.17396 13.9539ZM8.65433 15.5941C8.94068 15.8865 9.25759 16.1396 9.61092 16.3514H8.65433V15.5941ZM22.6975 16.3494C22.5262 16.3494 22.355 16.4642 22.355 16.6925V21.83C22.355 22.2047 22.0548 22.515 21.6693 22.515H16.5318C16.075 22.515 16.075 23.2 16.5318 23.2H21.6693C22.4224 23.2 23.04 22.5938 23.04 21.83V16.6925C23.04 16.4641 22.8688 16.3494 22.6975 16.3494ZM16.875 16.6925C16.6858 16.6925 16.5325 16.8459 16.5325 17.035C16.5325 17.2242 16.6858 17.3775 16.875 17.3775C17.0642 17.3775 17.2175 17.2242 17.2175 17.035C17.2175 16.8459 17.0642 16.6925 16.875 16.6925ZM17.9025 17.72C17.7133 17.72 17.56 17.8734 17.56 18.0625C17.56 18.2517 17.7133 18.405 17.9025 18.405C18.0917 18.405 18.245 18.2517 18.245 18.0625C18.245 17.8734 18.0917 17.72 17.9025 17.72ZM18.93 18.7475C18.7408 18.7475 18.5875 18.9009 18.5875 19.09C18.5875 19.2792 18.7408 19.4325 18.93 19.4325C19.1192 19.4325 19.2725 19.2792 19.2725 19.09C19.2725 18.9009 19.1192 18.7475 18.93 18.7475ZM12.08 19.09C11.8908 19.09 11.7375 19.2434 11.7375 19.4325C11.7375 19.6217 11.8908 19.775 12.08 19.775C12.2692 19.775 12.4225 19.6217 12.4225 19.4325C12.4225 19.2434 12.2692 19.09 12.08 19.09ZM19.9575 19.775C19.7683 19.775 19.615 19.9284 19.615 20.1175C19.615 20.3067 19.7683 20.46 19.9575 20.46C20.1467 20.46 20.3 20.3067 20.3 20.1175C20.3 19.9284 20.1467 19.775 19.9575 19.775ZM12.08 20.46C11.8908 20.46 11.7375 20.6134 11.7375 20.8025C11.7375 20.9917 11.8908 21.145 12.08 21.145C12.2692 21.145 12.4225 20.9917 12.4225 20.8025C12.4225 20.6134 12.2692 20.46 12.08 20.46ZM20.985 20.8025C20.7958 20.8025 20.6425 20.9559 20.6425 21.145C20.6425 21.3342 20.7958 21.4875 20.985 21.4875C21.1742 21.4875 21.3275 21.3342 21.3275 21.145C21.3275 20.9559 21.1742 20.8025 20.985 20.8025ZM12.08 21.83C11.8908 21.83 11.7375 21.9834 11.7375 22.1725C11.7375 22.3617 11.8908 22.515 12.08 22.515C12.2692 22.515 12.4225 22.3617 12.4225 22.1725C12.4225 21.9834 12.2692 21.83 12.08 21.83Z" fill="#131E27"/>
</g>
<defs>
<clipPath id="clip0_2273_3655">
<rect width="21.92" height="21.92" fill="white" transform="translate(1.12 1.28003)"/>
</clipPath>
</defs>
</svg>
