<svg width="23" height="23" viewBox="0 0 23 23" fill="none" xmlns="http://www.w3.org/2000/svg">
<path d="M1.49066 0.280029C0.737608 0.280029 0.119995 0.886268 0.119995 1.65003V6.78753C0.119995 7.24431 0.804995 7.24431 0.804995 6.78753V1.65003C0.804995 1.27531 1.10524 0.965029 1.49066 0.965029H6.62816C7.08495 0.965029 7.08495 0.280029 6.62816 0.280029H1.49066ZM15.5318 0.280029C15.075 0.280029 15.075 0.965029 15.5318 0.965029H20.6693C21.0547 0.965029 21.355 1.27531 21.355 1.65003V6.78753C21.355 7.24431 22.04 7.24431 22.04 6.78753V1.65003C22.04 0.886268 21.4224 0.280029 20.6693 0.280029H15.5318ZM11.08 0.965029C10.8908 0.965029 10.7375 1.11837 10.7375 1.30753C10.7375 1.49668 10.8908 1.65003 11.08 1.65003C11.2692 1.65003 11.4225 1.49668 11.4225 1.30753C11.4225 1.11837 11.2692 0.965029 11.08 0.965029ZM2.17499 1.99253C1.98584 1.99253 1.83249 2.14587 1.83249 2.33503C1.83249 2.52418 1.98584 2.67753 2.17499 2.67753C2.36415 2.67753 2.51749 2.52418 2.51749 2.33503C2.51749 2.14587 2.36415 1.99253 2.17499 1.99253ZM19.985 1.99253C19.7958 1.99253 19.6425 2.14587 19.6425 2.33503C19.6425 2.52418 19.7958 2.67753 19.985 2.67753C20.1742 2.67753 20.3275 2.52418 20.3275 2.33503C20.3275 2.14587 20.1742 1.99253 19.985 1.99253ZM11.08 2.33503C10.8908 2.33503 10.7375 2.48838 10.7375 2.67753C10.7375 2.86669 10.8908 3.02003 11.08 3.02003C11.2692 3.02003 11.4225 2.86669 11.4225 2.67753C11.4225 2.48838 11.2692 2.33503 11.08 2.33503ZM3.20249 3.02003C3.01334 3.02003 2.85999 3.17337 2.85999 3.36253C2.85999 3.55168 3.01334 3.70503 3.20249 3.70503C3.39165 3.70503 3.54499 3.55168 3.54499 3.36253C3.54499 3.17337 3.39165 3.02003 3.20249 3.02003ZM18.9575 3.02003C18.7683 3.02003 18.615 3.17337 18.615 3.36253C18.615 3.55168 18.7683 3.70503 18.9575 3.70503C19.1467 3.70503 19.3 3.55168 19.3 3.36253C19.3 3.17337 19.1467 3.02003 18.9575 3.02003ZM11.08 3.70503C10.8908 3.70503 10.7375 3.85837 10.7375 4.04753C10.7375 4.23668 10.8908 4.39003 11.08 4.39003C11.2692 4.39003 11.4225 4.23668 11.4225 4.04753C11.4225 3.85837 11.2692 3.70503 11.08 3.70503ZM4.22999 4.04753C4.04084 4.04753 3.88749 4.20087 3.88749 4.39003C3.88749 4.57918 4.04084 4.73253 4.22999 4.73253C4.41915 4.73253 4.57249 4.57918 4.57249 4.39003C4.57249 4.20087 4.41915 4.04753 4.22999 4.04753ZM17.93 4.04753C17.7408 4.04753 17.5875 4.20087 17.5875 4.39003C17.5875 4.57918 17.7408 4.73253 17.93 4.73253C18.1192 4.73253 18.2725 4.57918 18.2725 4.39003C18.2725 4.20087 18.1192 4.04753 17.93 4.04753ZM5.25749 5.07503C5.06834 5.07503 4.91499 5.22837 4.91499 5.41753C4.91499 5.60668 5.06834 5.76003 5.25749 5.76003C5.44665 5.76003 5.59999 5.60668 5.59999 5.41753C5.59999 5.22837 5.44665 5.07503 5.25749 5.07503ZM11.08 5.07503C10.8908 5.07503 10.7375 5.22837 10.7375 5.41753C10.7375 5.60668 10.8908 5.76003 11.08 5.76003C11.2692 5.76003 11.4225 5.60668 11.4225 5.41753C11.4225 5.22837 11.2692 5.07503 11.08 5.07503ZM16.9025 5.07503C16.7133 5.07503 16.56 5.22837 16.56 5.41753C16.56 5.60668 16.7133 5.76003 16.9025 5.76003C17.0917 5.76003 17.245 5.60668 17.245 5.41753C17.245 5.22837 17.0917 5.07503 16.9025 5.07503ZM6.28499 6.10253C6.09584 6.10253 5.94249 6.25587 5.94249 6.44503C5.94249 6.63418 6.09584 6.78753 6.28499 6.78753C6.47415 6.78753 6.62749 6.63418 6.62749 6.44503C6.62749 6.25587 6.47415 6.10253 6.28499 6.10253ZM15.875 6.10253C15.6858 6.10253 15.5325 6.25587 15.5325 6.44503C15.5325 6.63418 15.6858 6.78753 15.875 6.78753C16.0642 6.78753 16.2175 6.63418 16.2175 6.44503C16.2175 6.25587 16.0642 6.10253 15.875 6.10253ZM11.08 6.44503C10.3184 6.44507 9.59247 6.62723 8.95342 6.94272L8.85441 6.95945C5.83547 7.43462 3.16262 8.86704 1.55823 11.0353C1.46761 11.1569 1.46761 11.3232 1.55823 11.4447C2.48114 12.692 3.76063 13.6967 5.25281 14.4142C5.22873 14.7925 5.04719 15.1506 4.72903 15.5233C4.38697 15.924 3.89592 16.3187 3.351 16.6959C2.4456 17.3228 1.52602 17.8309 0.804995 18.377V15.6925C0.804995 15.2357 0.119995 15.2357 0.119995 15.6925V20.83C0.119995 21.5938 0.737608 22.2 1.49066 22.2H6.62816C7.08495 22.2 7.08495 21.515 6.62816 21.515H3.9176C4.14401 21.2382 4.43051 20.8945 4.74174 20.5444C5.07953 20.1644 5.43893 19.784 5.74315 19.5102C5.89526 19.3733 6.03368 19.2647 6.13983 19.1965C6.24598 19.1282 6.26277 19.1304 6.28366 19.1182H7.65433C8.14132 19.1182 8.57523 18.774 8.87047 18.3804C9.08921 18.0887 9.25606 17.7429 9.32803 17.4044H10.7362C11.3051 17.4044 11.7657 16.9475 11.7657 16.3775C11.7657 16.2407 11.74 16.1152 11.6914 15.9962C12.2307 15.928 12.7447 15.7667 13.2119 15.5353L13.2975 15.5206C16.3204 15.047 18.9957 13.6153 20.6018 11.4447C20.6924 11.3232 20.6924 11.1568 20.6018 11.0353C18.9974 8.86705 16.3245 7.43462 13.3056 6.95945L13.2052 6.94272C12.5665 6.62723 11.8416 6.44498 11.08 6.44503ZM11.08 7.13003C13.3406 7.13003 15.19 8.96609 15.19 11.24C15.19 13.514 13.335 15.35 11.08 15.35C8.82497 15.35 6.96933 13.514 6.96933 11.24C6.96933 8.96609 8.81942 7.13003 11.08 7.13003ZM11.08 7.81503C10.9087 7.81503 10.7375 7.92906 10.7375 8.15753V8.52277C9.49713 8.67803 8.51626 9.66131 8.3614 10.8975H7.99749C7.54071 10.8975 7.54071 11.5825 7.99749 11.5825H8.3614C8.51617 12.8188 9.49654 13.8034 10.7375 13.9586V14.3225C10.7375 14.7793 11.4225 14.7793 11.4225 14.3225V13.9586C12.6637 13.8036 13.6438 12.819 13.7986 11.5825H14.1625C14.6193 11.5825 14.6193 10.8975 14.1625 10.8975H13.7986C13.6437 9.66109 12.6632 8.67776 11.4225 8.52277V8.15753C11.4225 7.92913 11.2513 7.81503 11.08 7.81503ZM10.7375 9.21312V9.52753C10.7375 9.9843 11.4225 9.9843 11.4225 9.52753V9.21312C12.278 9.35795 12.9609 10.0357 13.1062 10.8975H12.7925C12.3357 10.8975 12.3357 11.5825 12.7925 11.5825H13.1062C12.9613 12.4446 12.2797 13.1203 11.4225 13.2649V12.9525C11.4225 12.4958 10.7375 12.4958 10.7375 12.9525V13.2649C9.88031 13.1203 9.20006 12.4446 9.0551 11.5825H9.36749C9.82427 11.5825 9.82427 10.8975 9.36749 10.8975H9.0551C9.20037 10.0358 9.88214 9.35811 10.7375 9.21312ZM11.08 10.8975C10.8908 10.8975 10.7375 11.0509 10.7375 11.24C10.7375 11.4292 10.8908 11.5825 11.08 11.5825C11.2692 11.5825 11.4225 11.4292 11.4225 11.24C11.4225 11.0509 11.2692 10.8975 11.08 10.8975ZM6.17395 12.9539C6.22441 12.95 6.28396 12.9552 6.34988 12.9773C6.60279 13.0603 6.96932 13.3984 6.96933 14.2162V15.6925C6.97001 15.8817 7.12395 16.0344 7.31316 16.0337H10.7362C10.9318 16.0337 11.08 16.1899 11.08 16.3775C11.08 16.5652 10.9318 16.7187 10.7362 16.7187H9.02433C8.83511 16.7194 8.68244 16.874 8.68316 17.0632C8.68316 17.3156 8.54045 17.6789 8.32193 17.9703C8.10342 18.2617 7.84297 18.4332 7.65433 18.4332H6.28366C6.091 18.4332 5.92665 18.5202 5.77058 18.6205C5.6145 18.7208 5.45458 18.8497 5.28559 19.0018C4.94762 19.306 4.57854 19.6989 4.23133 20.0895C3.63115 20.7647 3.171 21.3452 3.03727 21.515H1.49066C1.10524 21.515 0.804995 21.2047 0.804995 20.83V19.2647C1.4767 18.646 2.60728 18.0349 3.74033 17.2579C4.31025 16.867 4.84298 16.4451 5.25014 15.9681C5.65729 15.4912 5.94249 14.9403 5.94249 14.3219V13.2449C5.94249 13.0831 6.0032 13.0225 6.05153 12.992C6.08215 12.9727 6.12349 12.9582 6.17395 12.9539ZM7.65433 14.5941C7.94067 14.8865 8.25758 15.1396 8.61092 15.3514H7.65433V14.5941ZM21.6975 15.3494C21.5262 15.3494 21.355 15.4642 21.355 15.6925V20.83C21.355 21.2047 21.0547 21.515 20.6693 21.515H15.5318C15.075 21.515 15.075 22.2 15.5318 22.2H20.6693C21.4224 22.2 22.04 21.5938 22.04 20.83V15.6925C22.04 15.4641 21.8688 15.3494 21.6975 15.3494ZM15.875 15.6925C15.6858 15.6925 15.5325 15.8459 15.5325 16.035C15.5325 16.2242 15.6858 16.3775 15.875 16.3775C16.0642 16.3775 16.2175 16.2242 16.2175 16.035C16.2175 15.8459 16.0642 15.6925 15.875 15.6925ZM16.9025 16.72C16.7133 16.72 16.56 16.8734 16.56 17.0625C16.56 17.2517 16.7133 17.405 16.9025 17.405C17.0917 17.405 17.245 17.2517 17.245 17.0625C17.245 16.8734 17.0917 16.72 16.9025 16.72ZM17.93 17.7475C17.7408 17.7475 17.5875 17.9009 17.5875 18.09C17.5875 18.2792 17.7408 18.4325 17.93 18.4325C18.1192 18.4325 18.2725 18.2792 18.2725 18.09C18.2725 17.9009 18.1192 17.7475 17.93 17.7475ZM11.08 18.09C10.8908 18.09 10.7375 18.2434 10.7375 18.4325C10.7375 18.6217 10.8908 18.775 11.08 18.775C11.2692 18.775 11.4225 18.6217 11.4225 18.4325C11.4225 18.2434 11.2692 18.09 11.08 18.09ZM18.9575 18.775C18.7683 18.775 18.615 18.9284 18.615 19.1175C18.615 19.3067 18.7683 19.46 18.9575 19.46C19.1467 19.46 19.3 19.3067 19.3 19.1175C19.3 18.9284 19.1467 18.775 18.9575 18.775ZM11.08 19.46C10.8908 19.46 10.7375 19.6134 10.7375 19.8025C10.7375 19.9917 10.8908 20.145 11.08 20.145C11.2692 20.145 11.4225 19.9917 11.4225 19.8025C11.4225 19.6134 11.2692 19.46 11.08 19.46ZM19.985 19.8025C19.7958 19.8025 19.6425 19.9559 19.6425 20.145C19.6425 20.3342 19.7958 20.4875 19.985 20.4875C20.1742 20.4875 20.3275 20.3342 20.3275 20.145C20.3275 19.9559 20.1742 19.8025 19.985 19.8025ZM11.08 20.83C10.8908 20.83 10.7375 20.9834 10.7375 21.1725C10.7375 21.3617 10.8908 21.515 11.08 21.515C11.2692 21.515 11.4225 21.3617 11.4225 21.1725C11.4225 20.9834 11.2692 20.83 11.08 20.83Z" fill="white"/>
</svg>
