<svg width="20" height="23" viewBox="0 0 20 23" fill="none" xmlns="http://www.w3.org/2000/svg">
<path d="M19.9733 5.71413C19.9754 5.36226 19.8879 5.01564 19.719 4.70693C19.5501 4.39821 19.3055 4.13756 19.0081 3.9495C18.7106 3.76145 18.3703 3.65219 18.0189 3.632C17.6676 3.61182 17.317 3.68138 17 3.83413C16.979 3.47977 16.8697 3.1363 16.682 2.83501C16.4943 2.53373 16.2342 2.28423 15.9253 2.10925C15.6164 1.93428 15.2687 1.8394 14.9138 1.83326C14.5589 1.82713 14.208 1.90994 13.8933 2.07413C13.8578 1.56455 13.6456 1.08333 13.2932 0.713514C12.9408 0.343695 12.4704 0.108468 11.9631 0.048416C11.4559 -0.0116355 10.9435 0.107255 10.5145 0.384576C10.0856 0.661897 9.76682 1.08025 9.61332 1.56747C9.27899 1.36695 8.8965 1.26096 8.50665 1.2608C8.21981 1.26167 7.93596 1.31914 7.67136 1.42992C7.40677 1.5407 7.16664 1.70261 6.96474 1.90637C6.76284 2.11013 6.60314 2.35173 6.49479 2.61733C6.38644 2.88292 6.33156 3.16729 6.33332 3.45413V11.8941C5.47999 10.8275 4.64665 9.77413 4.51999 9.59413C4.32719 9.28799 4.05947 9.03609 3.74216 8.86227C3.42485 8.68845 3.06844 8.59845 2.70665 8.6008C2.39978 8.59152 2.09426 8.64524 1.80896 8.75863C1.52365 8.87203 1.26462 9.04269 1.04784 9.26009C0.831061 9.4775 0.661141 9.73702 0.548568 10.0227C0.435996 10.3083 0.383159 10.614 0.393321 10.9208C0.453321 12.1208 2.77332 16.3608 4.33332 18.6675C6.69332 22.1608 8.94665 22.6675 9.04665 22.6675H16.06C16.1927 22.666 16.3214 22.6216 16.4267 22.5408C17.6238 21.4376 18.4896 20.0223 18.9267 18.4541C19.5933 16.3941 19.9467 13.4341 19.98 9.41413L19.9733 5.71413ZM17.7867 18.0808C17.4123 19.3497 16.7403 20.5108 15.8267 21.4675H9.21999C8.90665 21.3741 7.17332 20.7341 5.30665 17.9675C3.43999 15.2008 1.62665 11.5141 1.59332 10.8608C1.58795 10.7212 1.61187 10.5821 1.66354 10.4524C1.71521 10.3226 1.79348 10.2051 1.89332 10.1075C1.99166 10.0062 2.11006 9.92668 2.24094 9.87387C2.37181 9.82106 2.51227 9.79618 2.65332 9.8008C2.82944 9.79055 3.00494 9.82937 3.1603 9.91294C3.31567 9.9965 3.4448 10.1215 3.53332 10.2741C3.72665 10.5608 5.10665 12.2741 5.91332 13.2941L7.53332 12.2008V3.45413C7.52212 3.31819 7.53922 3.18141 7.58356 3.05241C7.62789 2.92342 7.69849 2.80501 7.79089 2.70468C7.88329 2.60435 7.9955 2.52427 8.12042 2.46949C8.24533 2.41471 8.38025 2.38643 8.51665 2.38643C8.65305 2.38643 8.78797 2.41471 8.91289 2.46949C9.03781 2.52427 9.15001 2.60435 9.24242 2.70468C9.33482 2.80501 9.40542 2.92342 9.44975 3.05241C9.49409 3.18141 9.51119 3.31819 9.49999 3.45413V10.8808H10.7V2.21413C10.7284 1.96881 10.8459 1.74248 11.0303 1.57819C11.2147 1.41391 11.453 1.32313 11.7 1.32313C11.9469 1.32313 12.1853 1.41391 12.3697 1.57819C12.5541 1.74248 12.6716 1.96881 12.7 2.21413V10.9675H13.9V4.0008C13.889 3.86935 13.9053 3.73705 13.9481 3.61226C13.9908 3.48747 14.059 3.3729 14.1483 3.27581C14.2376 3.17872 14.346 3.10122 14.4668 3.0482C14.5876 2.99519 14.7181 2.96781 14.85 2.96781C14.9819 2.96781 15.1124 2.99519 15.2331 3.0482C15.3539 3.10122 15.4624 3.17872 15.5517 3.27581C15.641 3.3729 15.7092 3.48747 15.7519 3.61226C15.7946 3.73705 15.811 3.86935 15.8 4.0008V11.6275H17V5.69413C17.0192 5.4731 17.1206 5.26731 17.2841 5.11738C17.4477 4.96745 17.6615 4.88428 17.8833 4.88428C18.1052 4.88428 18.319 4.96745 18.4825 5.11738C18.6461 5.26731 18.7474 5.4731 18.7667 5.69413V9.39413C18.7467 13.3341 18.4267 16.1408 17.7867 18.0808Z" fill="#0B0326"/>
</svg>
